HIERARCHY
ROOT Hips
{
  OFFSET -196.707 69.5913 -207.624
  CHANNELS 6 Xposition Yposition Zposition Zrotation Xrotation Yrotation
  JOINT ToSpine
  {
    OFFSET -2.69724 7.43032 -0.144315
    CHANNELS 3 Zrotation Xrotation Yrotation
    JOINT Spine
    {
      OFFSET -0.0310711 10.7595 1.96963
      CHANNELS 3 Zrotation Xrotation Yrotation
      JOINT Spine1
      {
        OFFSET 13.1342 3.43533 0.764692
        CHANNELS 3 Zrotation Xrotation Yrotation
        JOINT Neck
        {
          OFFSET 29.8703 7.82586 -0.130764
          CHANNELS 3 Zrotation Xrotation Yrotation
          JOINT Head
          {
            OFFSET 9.52751 0.295786 -0.907742
            CHANNELS 3 Zrotation Xrotation Yrotation
            End Site
            {
              OFFSET 16.4037 0.713936 2.7358
            }
          }
        }
        JOINT LeftShoulder
        {
          OFFSET 27.5574 4.95586 2.47156
          CHANNELS 3 Zrotation Xrotation Yrotation
          JOINT LeftArm
          {
            OFFSET 1.20734 -0.998971 20.1238
            CHANNELS 3 Zrotation Xrotation Yrotation
            JOINT LeftForeArm
            {
              OFFSET 26.8049 -0.0536703 -0.155908
              CHANNELS 3 Zrotation Xrotation Yrotation
              JOINT LeftHand
              {
                OFFSET 26.6817 0 0.320147
                CHANNELS 3 Zrotation Xrotation Yrotation
                End Site
                {
                  OFFSET 18.6119 0 0.382219
                }
              }
            }
          }
        }
        JOINT RightShoulder
        {
          OFFSET 27.5927 4.71444 -2.65209
          CHANNELS 3 Zrotation Xrotation Yrotation
          JOINT RightArm
          {
            OFFSET 2.83739 -1.17114 -18.7564
            CHANNELS 3 Zrotation Xrotation Yrotation
            JOINT RightForeArm
            {
              OFFSET 28.839 -0.0548439 1.22491
              CHANNELS 3 Zrotation Xrotation Yrotation
              JOINT RightHand
              {
                OFFSET 26.5114 0 -0.101894
                CHANNELS 3 Zrotation Xrotation Yrotation
                End Site
                {
                  OFFSET 18.2168 0 0
                }
              }
            }
          }
        }
      }
    }
  }
  JOINT LeftUpLeg
  {
    OFFSET -4.76168 -1.9167 -10.2353
    CHANNELS 3 Zrotation Xrotation Yrotation
    JOINT LeftLeg
    {
      OFFSET 2.55951 -42.0585 -8.02213
      CHANNELS 3 Zrotation Xrotation Yrotation
      JOINT LeftFoot
      {
        OFFSET 3.16357 -42.5282 -3.95426
        CHANNELS 3 Zrotation Xrotation Yrotation
        JOINT LeftToeBase
        {
          OFFSET 0.346054 -6.02161 12.8035
          CHANNELS 3 Zrotation Xrotation Yrotation
          End Site
          {
            OFFSET 0.134235 -1.35082 5.13018
          }
        }
      }
    }
  }
  JOINT RightUpLeg
  {
    OFFSET -4.94151 -1.41743 10.6446
    CHANNELS 3 Zrotation Xrotation Yrotation
    JOINT RightLeg
    {
      OFFSET -2.56294 -42.0364 -7.94377
      CHANNELS 3 Zrotation Xrotation Yrotation
      JOINT RightFoot
      {
        OFFSET -3.0952 -42.555 -4.02241
        CHANNELS 3 Zrotation Xrotation Yrotation
        JOINT RightToeBase
        {
          OFFSET -0.0828122 -6.13587 12.8035
          CHANNELS 3 Zrotation Xrotation Yrotation
          End Site
          {
            OFFSET -0.131328 -1.35082 5.13018
          }
        }
      }
    }
  }
}
MOTION
Frames:	18
Frame Time:	0.0333333
-165.035 91.5356 -193.52 63.8053 -10.0042 -10.8236 -70.1915 0 88.8779 102.17 69.2286 -18.0959 -1.92019 18.5719 4.94995 -120.115 28.864 152.51 -159.78 74.662 -173.428 -0.0877386 -15.7761 -30.7136 -52.7488 39.0239 -97.2249 12.1892 11.4044 -47.1148 0.428028 0.00324145 0.358659 -1.85097 4.9033 51.9215 -64.1742 -31.3424 79.2202 3.83979 -6.37929 31.582 0.586748 0.00381549 0.0646638 -55.9119 -8.25627 92.3777 -2.64438 36.0153 -14.5232 4.49634 -24.7238 -1.68303 2.30261 -8.85443 16.3159 -14.7738 -1.92843 84.8336 1.42525 31.3607 1.18306 -10.4939 -5.60473 1.43222 2.40841 -24.7362 -11.6549 
-162.219 90.9756 -192.099 63.933 -9.46691 -11.376 -70.1915 0 88.8779 97.4414 69.6066 -13.6887 -0.643312 18.6765 4.45939 -121.258 28.9049 152.825 -157.301 74.3328 -174.178 -0.0913407 -15.7092 -31.0494 -52.9332 39.1972 -96.7592 12.0571 11.8336 -45.7554 0.428028 0.00324145 0.358659 -1.86811 4.87484 52.4375 -64.8853 -31.974 77.7836 3.66646 -6.30581 30.7318 0.586748 0.00381549 0.0646638 -58.8564 -7.9503 94.1981 -1.88652 34.3397 -17.2764 4.6976 -24.5124 -1.65532 2.71964 -9.34699 15.5184 -14.5049 -3.87379 84.6852 1.62679 28.3795 -0.497534 -12.4041 -5.72738 1.58367 2.38925 -26.0104 -12.3241 
-159.354 90.285 -190.547 64.3482 -9.44312 -11.6197 -70.1915 0 88.8779 96.3389 69.7083 -12.8335 -0.311978 18.6074 4.61103 -122.311 29.3101 154.006 -157.21 74.3087 -170.218 -0.079691 -15.5615 -31.4289 -52.9942 39.9407 -96.3803 11.465 11.985 -43.9276 0.428028 0.00324145 0.358659 -1.85394 4.85374 52.3281 -65.0583 -32.5743 77.1109 3.97528 -7.10601 29.7619 0.586748 0.00381549 0.0646638 -62.1362 -7.438 95.4896 -1.19661 33.0176 -20.5085 4.086 -24.4413 -1.70818 3.43726 -10.5303 16.1038 -14.4574 -4.96502 85.2649 1.43817 27.5889 -2.41351 -9.61589 -8.0896 1.34637 2.34961 -21.3622 -11.0372 
-156.367 89.5211 -188.941 64.4061 -9.5015 -11.4486 -70.1915 0 88.8779 96.8536 69.6279 -12.7492 -0.457813 18.4229 4.75286 -124.62 29.6592 155.265 -154.839 73.89 -170.932 -0.0510936 -15.4191 -31.4587 -52.7167 41.0563 -96.7149 11.2238 12.8755 -41.293 0.428028 0.00324145 0.358659 -1.80011 4.85107 51.3524 -65.0396 -33.5738 77.2059 4.05369 -7.59276 28.6304 0.586748 0.00381549 0.0646638 -64.7 -6.709 95.5932 -0.770618 32.5487 -22.0468 3.93812 -23.831 -1.69193 4.69735 -12.5289 17.1133 -13.7045 -5.93957 84.4831 1.26152 29.6207 -2.79906 -6.52837 -9.66807 1.19642 2.2568 -17.6369 -12.7058 
-153.233 88.8799 -187.061 63.9221 -9.60517 -11.1897 -70.1915 0 88.8779 95.8409 69.5597 -11.4569 -0.427355 17.9401 5.61763 -127.136 29.8397 156.491 -153.182 73.3613 -171.358 -0.0661358 -15.3952 -31.8717 -52.7201 42.2157 -96.7377 10.5181 13.4744 -38.1689 0.428028 0.00324145 0.358659 -1.77446 4.76371 51.4937 -64.4191 -32.6984 77.3734 3.82517 -7.43169 27.7831 0.586748 0.00381549 0.0646638 -66.3299 -5.29456 95.597 -0.891407 32.8435 -23.0906 5.36912 -19.7557 -1.42836 8.11696 -17.4685 17.7038 -12.4737 -6.46696 82.5409 0.983944 33.6932 -2.70139 -3.99978 -6.55727 0.945904 2.25041 -18.6695 -18.9219 
-149.935 88.0988 -184.961 62.4647 -10.2751 -10.9554 -70.1915 0 88.8779 95.1445 69.4126 -9.37275 -1.1454 17.9138 5.55443 -129.176 29.5998 156.401 -149.253 72.6401 -174.39 -0.135661 -15.718 -31.8724 -53.7032 44.0853 -95.8606 9.76059 13.9029 -35.2339 0.428028 0.00324145 0.358659 -1.74922 4.63506 51.9514 -64.8177 -31.2501 77.6366 3.65056 -7.73124 26.8263 0.586748 0.00381549 0.0646638 -66.9651 -3.96349 93.5074 -1.16081 33.958 -20.9208 1.7285 -18.6207 -1.5236 9.82338 -19.9691 14.0452 -9.53296 -7.29597 78.1307 0.52614 40.7187 -8.54603 -10.6046 -5.41076 1.44402 2.73767 -21.6765 1.10322 
-146.51 87.7095 -182.727 62.8664 -12.9122 -11.5771 -70.1915 0 88.8779 99.3588 69.4073 -13.9967 -1.19169 17.8202 6.5797 -133.232 30.011 159.623 -153.268 72.1539 -170.844 -0.12649 -15.5711 -32.3185 -56.9042 46.4793 -93.155 9.12767 14.4965 -32.3371 0.428028 0.00324145 0.358659 -1.8694 5.02999 51.3775 -67.1086 -29.4357 78.2234 3.92586 -10.6062 25.6645 0.586748 0.00381549 0.0646638 -69.9094 -3.72194 91.2633 -2.29115 34.5618 -16.2442 -0.295016 -15.8106 -1.35741 10.6049 -21.2745 11.4761 -9.60278 -4.96571 79.3233 1.50179 46.1646 -4.77203 -9.05582 -5.02036 1.31603 2.187 -22.3212 -16.1521 
-142.972 87.7524 -180.337 62.6957 -14.9529 -10.9141 -70.1915 0 88.8779 103.148 68.7767 -15.91 -1.60899 17.562 6.25471 -135.804 29.7012 161.821 -154.795 71.3016 -169.223 -0.171823 -15.7597 -32.3939 -56.973 48.3279 -91.5655 7.34581 12.7062 -30.0787 0.428028 0.00324145 0.358659 -1.92538 5.26953 50.7743 -69.2399 -28.6027 78.7584 3.82538 -11.0668 25.385 0.586748 0.00381549 0.0646638 -70.4907 -1.84927 90.5563 -3.08591 37.7409 -13.2488 -0.930503 -10.3469 -0.873603 12.0064 -23.5811 10.0462 -11.3524 -3.90794 76.2179 1.31722 48.2694 -7.22626 -9.5395 -4.64432 1.3597 2.33139 -20.1281 -10.052 
-139.082 87.7964 -177.629 62.01 -16.2047 -10.7141 -70.1915 0 88.8779 101.144 68.8009 -12.7507 -1.16666 17.4891 6.03386 -137.029 29.3896 162.477 -153.551 70.6853 -170.893 -0.0942844 -15.4562 -32.1769 -55.1165 49.0528 -92.1891 5.53766 12.2877 -27.4898 0.428028 0.00324145 0.358659 -1.87567 5.24929 50.0418 -69.8953 -29.0682 79.5663 4.04214 -9.78332 26.0827 0.586748 0.00381549 0.0646638 -68.5579 0.672367 92.5122 -3.35169 42.9588 -10.944 -3.29612 -1.61556 0.163053 12.9532 -25.6663 5.81908 -12.1922 -2.70003 74.9942 2.05495 52.0581 -5.71704 -9.39323 -9.01694 1.32948 2.32556 -12.6525 -15.2083 
-135.304 88.0482 -174.887 62.0128 -17.8428 -11.398 -70.1915 0 88.8779 101.038 69.2063 -13.0707 -1.63391 17.8846 6.43461 -138.241 29.4632 163.666 -155.269 70.5635 -169.618 -0.0170983 -15.1568 -31.9195 -59.0927 50.0276 -88.8625 5.07732 16.3301 -25.6705 0.428028 0.00324145 0.358659 -1.90103 5.47471 49.0789 -68.9126 -29.4192 81.1447 3.23263 -6.66982 27.0054 0.586748 0.00381549 0.0646638 -65.5219 1.64488 93.0393 -4.425 51.4035 -9.86133 -5.53883 4.68885 1.21483 8.41749 -17.7811 3.69974 -14.2837 -1.64107 74.5206 2.49958 54.6286 -5.51928 -6.68736 -14.3558 1.29807 2.26606 -3.64821 -14.0439 
-131.585 88.7083 -172.133 62.6458 -20.1457 -11.3999 -70.1915 0 88.8779 105.707 69.6032 -17.0911 -2.85111 18.8364 6.05954 -139.019 29.4928 164.057 -155.231 70.4705 -169.755 -0.0176301 -15.1525 -31.9508 -63.496 50.8563 -84.6288 5.75444 19.6503 -25.2484 0.428028 0.00324145 0.358659 -1.89907 5.61132 48.2399 -71.1082 -29.5157 81.1463 3.63166 -6.67463 29.1417 0.586748 0.00381549 0.0646638 -61.4597 2.66285 92.7439 -6.33163 60.6881 -6.7944 -7.22975 8.47019 2.03047 3.6581 -9.95547 10.2556 -18.5449 0.903848 74.3487 2.86821 54.3752 -3.39251 -11.3067 -14.1234 1.32028 2.74391 -7.43194 -18.945 
-127.872 89.6488 -169.277 63.4963 -21.8041 -10.806 -70.1915 0 88.8779 107.401 70.0681 -18.1689 -2.71752 19.6029 5.52213 -138.559 28.9033 163.512 -153.653 69.965 -170.008 -0.00507275 -15.0809 -32.0139 -64.7699 51.0198 -82.953 5.21087 19.2522 -24.9108 0.428028 0.00324145 0.358659 -1.91522 5.66001 48.2261 -71.5999 -28.4291 82.3604 4.30342 -7.24102 31.2588 0.586748 0.00381549 0.0646638 -55.9416 3.82657 91.7274 -9.55354 69.3558 -0.92826 -3.85137 4.61953 0.919584 3.79395 -10.2141 10.4342 -23.609 3.74671 74.8587 2.67779 52.8324 -3.15851 -10.2722 -16.907 1.2808 2.90861 -1.46615 -18.3562 
-124.327 90.9266 -166.37 64.3177 -23.1707 -10.9166 -70.1915 0 88.8779 108.218 70.6263 -19.8393 -2.82893 20.167 5.77885 -139.259 28.9715 164.349 -154.619 69.9105 -169.229 0.0427999 -14.892 -31.8536 -64.4853 51.7077 -82.8306 4.9538 17.9436 -25.041 0.428028 0.00324145 0.358659 -1.94557 5.89187 47.4232 -73.0388 -28.0526 83.5347 5.34199 -8.15945 33.6985 0.586748 0.00381549 0.0646638 -50.0453 3.3974 90.17 -13.3628 74.2707 3.47623 -1.33519 2.24648 0.282825 7.56189 -16.3822 8.53727 -29.2873 5.88469 75.8496 2.38956 49.8559 -2.37406 -8.80851 -18.7524 1.31148 3.17766 0.626287 -19.5065 
-120.659 92.2252 -163.651 64.7833 -24.7319 -11.8532 -70.1915 0 88.8779 109.815 71.5567 -21.8219 -3.30392 21.5528 4.99931 -139.552 28.9631 164.393 -154.608 69.8596 -169.572 0.014193 -15.0378 -31.7944 -62.0516 52.2199 -84.0563 5.33004 16.3905 -25.7867 0.428028 0.00324145 0.358659 -1.84029 5.6898 46.8235 -74.5254 -27.6913 84.1848 6.12655 -8.49334 36.2771 0.586748 0.00381549 0.0646638 -44.3594 1.63974 88.9139 -14.7997 75.5651 5.20065 0.238 -1.3941 -0.226747 7.36496 -16.0117 7.72171 -35.177 7.30559 77.6546 1.89218 45.9599 -2.67741 -8.77642 -19.5662 1.31391 2.73461 -1.79527 -17.2495 
-117.135 93.5863 -160.992 64.0858 -26.5779 -13.2567 -70.1915 0 88.8779 106.651 72.8941 -19.2209 -3.12872 22.6314 4.77314 -139.138 28.507 165.189 -155.127 69.3955 -168.175 0.135554 -14.5616 -31.3161 -59.5169 53.2419 -85.5416 5.31578 13.9289 -26.5741 0.428028 0.00324145 0.358659 -1.90755 6.00322 46.2289 -76.5682 -27.1407 84.9565 8.75483 -10.9734 39.1093 0.586748 0.00381549 0.0646638 -38.4055 -0.238709 87.6526 -12.3745 73.2438 2.40021 -0.096121 -5.01621 -0.475702 5.30258 -13.0524 13.4076 -40.522 8.3302 78.7323 1.81205 40.9253 -0.0951663 -10.0911 -17.6368 1.27667 2.90552 -5.1884 -19.5083 
-113.676 94.4307 -158.424 63.9001 -28.7266 -14.5563 -70.1915 0 88.8779 108.121 73.9134 -21.2974 -3.51166 23.8301 4.75454 -140.756 28.7219 166.95 -156.558 69.3092 -167.632 0.233228 -14.0924 -31.3271 -58.1441 53.8025 -86.3083 5.35135 11.9853 -27.4039 0.428028 0.00324145 0.358659 -1.85305 6.0753 45.0041 -76.7727 -26.8059 86.5521 9.53813 -10.861 41.8371 0.586748 0.00381549 0.0646638 -33.6833 -1.82584 86.5425 -8.14588 68.0013 0.870385 -0.228515 -7.88818 -0.698305 6.00313 -14.2248 14.4168 -46.042 8.96909 80.4136 1.55521 36.5787 -0.697883 -7.6366 -18.4707 1.35061 2.1 -2.23126 -12.8771 
-110.076 94.9485 -156.013 62.9482 -30.4942 -16.0967 -70.1915 0 88.8779 109.591 74.5315 -22.3537 -4.61547 24.9334 3.70543 -141.444 28.2815 167.843 -156.49 68.7221 -167.712 0.333847 -13.6938 -30.7938 -57.2014 54.6392 -86.2087 5.13501 10.3943 -28.0356 0.428028 0.00324145 0.358659 -1.90341 6.26461 44.8549 -76.2814 -25.9479 88.2091 9.76459 -10.1468 44.4365 0.586748 0.00381549 0.0646638 -29.5947 -3.33593 85.3102 -5.54266 60.3116 -2.96183 0.164916 -7.979 -0.729006 6.78992 -15.5895 17.6566 -50.527 9.34633 82.349 1.5993 33.0368 1.16943 -7.10607 -17.6446 1.35456 2.16337 -3.4747 -13.2641 
-106.267 94.9223 -153.659 61.8711 -32.1491 -17.4506 -70.1915 0 88.8779 110.374 75.0077 -22.3362 -5.25431 25.6553 2.97002 -143.047 28.0256 170.117 -157.565 68.1778 -166.946 0.375633 -13.4236 -31.2329 -57.2885 55.0738 -85.2136 4.94984 9.36461 -28.5611 0.428028 0.00324145 0.358659 -1.8981 6.46795 43.819 -77.1765 -25.359 89.7317 11.5066 -10.9545 47.0303 0.586748 0.00381549 0.0646638 -26.3516 -3.88563 84.674 -3.70557 50.6926 -5.29876 0.77533 -8.5001 -0.803151 7.57622 -16.673 16.5667 -54.4801 8.73044 82.2173 1.5579 30.6766 3.49576 -5.68906 -18.5206 1.41775 2.08831 -3.59818 -12.6834 
